<svg width="68" height="60" viewBox="0 0 68 60" fill="none" xmlns="http://www.w3.org/2000/svg">
<path d="M33.6973 0.00323138C33.2858 0.02486 32.8862 0.149141 32.5351 0.364747C32.1839 0.580353 31.8923 0.880423 31.6868 1.23761L0.330687 55.5453C0.114124 55.9204 7.76493e-05 56.346 3.96372e-08 56.7791C-7.757e-05 57.2123 0.113816 57.6378 0.330244 58.0131C0.546672 58.3883 0.858017 58.7 1.23302 58.9168C1.60801 59.1336 2.03346 59.248 2.46665 59.2484H65.1835C65.6167 59.248 66.0422 59.1337 66.4172 58.9169C66.7923 58.7001 67.1036 58.3884 67.3201 58.0132C67.5366 57.6379 67.6505 57.2124 67.6504 56.7792C67.6503 56.346 67.5363 55.9205 67.3197 55.5453L35.9636 1.23761C35.7365 0.84285 35.4046 0.518615 35.0046 0.300764C34.6046 0.0829137 34.1522 -0.0200603 33.6973 0.00323138ZM33.8232 19.7147C35.0695 19.7147 36.3154 20.5479 36.292 22.2172V36.9622C36.3167 38.3238 35.224 39.4424 33.8474 39.4647C32.4708 39.4869 31.3298 38.354 31.3545 36.9622V22.2172C31.3298 20.5479 32.577 19.7147 33.8232 19.7147ZM33.9738 44.4359C34.0563 44.4367 34.1387 44.4417 34.2207 44.4507C35.1571 44.5131 36.0348 44.9287 36.6766 45.6134C37.3183 46.2981 37.6761 47.201 37.6777 48.1394C37.6777 48.6257 37.5819 49.1072 37.3958 49.5565C37.2097 50.0058 36.9369 50.414 36.5931 50.7579C36.2492 51.1018 35.841 51.3745 35.3917 51.5606C34.9424 51.7467 34.4609 51.8425 33.9746 51.8425C33.4883 51.8425 33.0067 51.7467 32.5574 51.5606C32.1081 51.3745 31.6999 51.1018 31.3561 50.7579C31.0122 50.414 30.7394 50.0058 30.5533 49.5565C30.3672 49.1072 30.2714 48.6257 30.2714 48.1394C30.2714 47.1906 30.6355 46.278 31.2887 45.5898C31.9419 44.9017 32.8342 44.4905 33.7817 44.4411C33.79 44.4411 33.7982 44.4411 33.8064 44.4411C33.864 44.4374 33.9216 44.4358 33.9793 44.4361L33.9738 44.4359Z" fill="black"/>
</svg>
