<svg width="60" height="35" viewBox="0 0 60 35" fill="none" xmlns="http://www.w3.org/2000/svg">
<path d="M9.6875 3.28125C9.6875 5.09359 8.21859 6.5625 6.40625 6.5625C4.59391 6.5625 3.125 5.09359 3.125 3.28125C3.125 1.46891 4.59391 0 6.40625 0C8.21859 0 9.6875 1.46891 9.6875 3.28125Z" fill="black"/>
<path d="M9.6875 8.75H3.125C1.91641 8.75 0.9375 9.72891 0.9375 10.9375V21.875H3.125V35H5.85938V21.875H6.95312V35H9.6875V21.875H11.875V10.9375C11.875 9.72891 10.8961 8.75 9.6875 8.75Z" fill="black"/>
<path d="M40.7963 0L22 19.3103L25.5243 22.931L29.0486 19.3103V35H38.4468V27.7586H43.1458V35H52.544V19.3103L56.0683 22.931L59.5926 19.3103L40.7963 0ZM40.7963 15.6897C39.4982 15.6897 38.4468 14.6095 38.4468 13.2759C38.4468 11.9422 39.4982 10.8621 40.7963 10.8621C42.0944 10.8621 43.1458 11.9422 43.1458 13.2759C43.1458 14.6095 42.0944 15.6897 40.7963 15.6897Z" fill="black"/>
</svg>
