<svg width="80" height="36" viewBox="0 0 80 36" fill="none" xmlns="http://www.w3.org/2000/svg">
<path d="M77.75 8.75H71.1875C69.9789 8.75 69 9.72891 69 10.9375V21.875H71.1875V35H73.9219V21.875H75.0156V35H77.75V21.875H79.9375V10.9375C79.9375 9.72891 78.9586 8.75 77.75 8.75Z" fill="black"/>
<path d="M77.75 3.28125C77.75 5.09359 76.2811 6.5625 74.4688 6.5625C72.6564 6.5625 71.1875 5.09359 71.1875 3.28125C71.1875 1.46891 72.6564 0 74.4688 0C76.2811 0 77.75 1.46891 77.75 3.28125Z" fill="black"/>
<path d="M8.75 3.28125C8.75 5.09359 7.28109 6.5625 5.46875 6.5625C3.65641 6.5625 2.1875 5.09359 2.1875 3.28125C2.1875 1.46891 3.65641 0 5.46875 0C7.28109 0 8.75 1.46891 8.75 3.28125Z" fill="black"/>
<path d="M8.75 8.75H2.1875C0.978906 8.75 0 9.72891 0 10.9375V21.875H2.1875V35H4.92188V21.875H6.01562V35H8.75V21.875H10.9375V10.9375C10.9375 9.72891 9.95859 8.75 8.75 8.75Z" fill="black"/>
<path d="M58.8462 17.9231L51.5649 25.2044L51.5649 19.6034L44.8438 19.6034L44.8438 16.2428L51.5649 16.2428L51.5649 10.6418L58.8462 17.9231ZM37.0024 19.6034L30.2812 19.6034L30.2812 25.2044L23 17.9231L30.2812 10.6418L30.2812 16.2428L37.0024 16.2428V19.6034Z" fill="black"/>
</svg>
