<svg width="106" height="35" viewBox="0 0 106 35" fill="none" xmlns="http://www.w3.org/2000/svg">
<path d="M0.561001 31.0646C0.663145 31.3872 0.90686 31.7451 1.30648 31.8657C1.595 31.9528 11.1411 34.814 11.435 34.8938C12.2755 35.1256 12.8597 34.955 13.2432 34.6045C13.8274 34.0723 20.578 29.3197 29.0937 28.8709C30.004 28.8246 29.5578 25.2531 26.9558 25.2531C25.1727 25.2531 19.9597 26.5938 19.3307 25.9411C18.8451 25.4367 18.6246 22.4568 20.6514 17.2573L24.7283 6.80442C25.1154 5.81235 24.6494 4.68492 23.6925 4.28439C22.7356 3.88385 21.6406 4.36412 21.2571 5.35619C21.2571 5.35619 18.0476 13.5857 17.6982 14.4776C17.3523 15.3677 16.9258 15.7052 16.4617 15.5198C16.0477 15.3566 15.9617 15.071 16.2126 14.205L19.8791 3.02715C20.2124 2.01469 19.6891 0.916928 18.7107 0.572023C17.7322 0.227118 16.666 0.768582 16.3362 1.78104L12.8489 12.4101C12.5407 13.3446 12.2146 13.8342 11.6985 13.608C11.3884 13.4726 11.4099 12.9812 11.4924 12.5528L13.9403 2.40781C14.1912 1.36753 13.5801 0.31798 12.5765 0.0583739C11.573 -0.201232 10.5605 0.42924 10.3078 1.46952L8.04988 10.819C7.72015 12.1931 7.4173 12.6882 6.89223 12.5528C6.35642 12.4175 6.38151 11.9613 6.45498 11.5849C6.62522 10.7041 8.01763 3.55935 8.01763 3.55935C8.20221 2.60437 7.60546 1.6772 6.68436 1.48621C5.76326 1.29521 4.86724 1.9127 4.68446 2.86397L2.98561 11.5997L2.98382 11.6016C2.98382 11.6016 2.98382 11.6016 2.98382 11.6034L1.96595 16.8419C1.74374 17.8303 1.48927 18.7611 1.15954 19.6735C-0.784815 25.0306 0.229475 29.9909 0.561001 31.0646Z" fill="black"/>
<path d="M105.092 31.0646C104.993 31.3872 104.757 31.7451 104.369 31.8657C104.089 31.9528 94.8307 34.814 94.5457 34.8938C93.7305 35.1256 93.1639 34.955 92.792 34.6045C92.2253 34.0723 85.678 29.3197 77.4187 28.8709C76.5358 28.8246 76.9686 25.2531 79.4923 25.2531C81.2216 25.2531 86.2777 26.5938 86.8877 25.9411C87.3588 25.4367 87.5725 22.4568 85.6068 17.2573L81.6527 6.80442C81.2773 5.81235 81.7292 4.68492 82.6573 4.28439C83.5854 3.88385 84.6474 4.36412 85.0193 5.35619C85.0193 5.35619 88.1322 13.5857 88.4711 14.4776C88.8066 15.3677 89.2202 15.7052 89.6704 15.5198C90.0719 15.3566 90.1553 15.071 89.912 14.205L86.3559 3.02715C86.0326 2.01469 86.5401 0.916928 87.4891 0.572023C88.4381 0.227118 89.4722 0.768582 89.7921 1.78104L93.1743 12.4101C93.4733 13.3446 93.7896 13.8342 94.2902 13.608C94.5909 13.4726 94.57 12.9812 94.49 12.5528L92.1158 2.40781C91.8725 1.36753 92.4652 0.31798 93.4385 0.0583739C94.4118 -0.201232 95.3938 0.42924 95.6389 1.46952L97.8289 10.819C98.1487 12.1931 98.4424 12.6882 98.9517 12.5528C99.4714 12.4175 99.447 11.9613 99.3758 11.5849C99.2106 10.7041 97.8602 3.55935 97.8602 3.55935C97.6811 2.60437 98.2599 1.6772 99.1533 1.48621C100.047 1.29521 100.916 1.9127 101.093 2.86397L102.741 11.5997L102.742 11.6016C102.742 11.6016 102.742 11.6016 102.742 11.6034L103.73 16.8419C103.945 17.8303 104.192 18.7611 104.512 19.6735C106.398 25.0306 105.414 29.9909 105.092 31.0646Z" fill="black"/>
<path d="M65.4199 16.1722C63.148 9.90281 58.3334 4.27219 53.2369 0C48.1403 4.27328 43.3257 9.90281 41.0538 16.1722C39.6487 20.0495 39.5105 24.2583 41.4883 27.9781C43.7635 32.2558 48.3504 35 53.2358 35C58.1211 35 62.7091 32.2558 64.9832 27.9781C66.9621 24.2583 66.8228 20.0495 65.4177 16.1722H65.4199ZM61.0707 25.9405C59.5572 28.7864 56.4827 30.625 53.2369 30.625C51.332 30.625 49.488 29.9917 47.9822 28.8936C48.4399 28.9527 48.902 28.9844 49.3686 28.9844C53.4259 28.9844 57.2688 26.6875 59.1592 23.1317C60.7092 20.2169 60.5754 17.1894 59.984 14.7798C60.487 15.7423 60.9137 16.7005 61.2565 17.6488C62.037 19.8045 62.6395 22.9928 61.0707 25.9405Z" fill="black"/>
</svg>
