<svg width="81" height="35" viewBox="0 0 81 35" fill="none" xmlns="http://www.w3.org/2000/svg">
<path d="M17.5 0C7.83453 0 0 7.83453 0 17.5C0 27.1655 7.83453 35 17.5 35C27.1655 35 35 27.1655 35 17.5C35 7.83453 27.1655 0 17.5 0ZM24.0625 8.75C25.2711 8.75 26.25 9.72891 26.25 10.9375C26.25 12.1461 25.2711 13.125 24.0625 13.125C22.8539 13.125 21.875 12.1461 21.875 10.9375C21.875 9.72891 22.8539 8.75 24.0625 8.75ZM10.9375 8.75C12.1461 8.75 13.125 9.72891 13.125 10.9375C13.125 12.1461 12.1461 13.125 10.9375 13.125C9.72891 13.125 8.75 12.1461 8.75 10.9375C8.75 9.72891 9.72891 8.75 10.9375 8.75ZM18.5872 23.2203C18.5445 23.182 18.5019 23.1416 18.4614 23.1011C17.8205 22.4602 17.5011 21.6213 17.5 20.7812C17.5 21.6213 17.1795 22.4602 16.5386 23.1011C16.497 23.1427 16.4555 23.182 16.4128 23.2203C13.4553 25.9033 6.5625 23.1569 6.5625 19.6875C8.68219 21.0547 10.3381 20.0222 11.8989 18.4614C13.1808 17.1795 15.2578 17.1795 16.5397 18.4614C17.1806 19.1023 17.5011 19.9412 17.5011 20.7812C17.5011 19.9412 17.8216 19.1023 18.4625 18.4614C19.7444 17.1795 21.8214 17.1795 23.1033 18.4614C24.6641 20.0222 26.32 21.0547 28.4397 19.6875C28.4397 23.158 21.5469 25.9044 18.5894 23.2203H18.5872Z" fill="black"/>
<path d="M80.2248 10.3691C80.1453 9.50144 79.3701 8.88354 78.5229 9.01859C75.3001 9.53289 67.7448 12.5151 62.5 12.5151C57.2552 12.5151 49.6999 9.53289 46.4771 9.01859C45.6299 8.88354 44.8566 9.49959 44.7752 10.3672C44.5124 13.2014 44 20.7476 44 21.8909C44 23.4264 50.4232 26.9451 55.1 26.9451C59.6362 26.9451 60.5575 21.8909 62.5 21.8909C64.4425 21.8909 65.3638 26.9451 69.9 26.9451C74.5768 26.9451 81 23.4264 81 21.8909C81 20.7476 80.4875 13.2014 80.2248 10.3691ZM58.171 19.3971C57.518 19.9854 55.7013 21.3766 53.4887 20.9418C51.2761 20.5071 49.9385 18.4943 49.4816 17.6895C49.3706 17.4934 49.4057 17.2455 49.563 17.1031C50.216 16.5148 52.0327 15.1236 54.2472 15.5583C56.4616 15.9931 57.7973 18.0059 58.2542 18.8106C58.3634 19.0067 58.3282 19.2546 58.171 19.3971ZM75.5185 17.6895C75.0634 18.4961 73.7258 20.5071 71.5114 20.9418C69.2969 21.3766 67.4802 19.9854 66.829 19.3971C66.6699 19.2546 66.6366 19.0067 66.7458 18.8106C67.2008 18.004 68.5384 15.9931 70.7529 15.5583C72.9673 15.1236 74.784 16.5148 75.4352 17.1031C75.5943 17.2455 75.6295 17.4934 75.5185 17.6895Z" fill="black"/>
</svg>
