<svg width="233" height="274" viewBox="0 0 233 274" fill="none" xmlns="http://www.w3.org/2000/svg">
<path d="M149.349 3.12499L142.991 1L138.752 5.24999L142.991 9.49998L140.872 11.625H138.752V15.875V18H136.633V20.125L138.752 35H140.872H142.991V41.375V47.75H140.872L138.752 45.625L134.514 49.875L132.395 52L128.156 49.875H126.037H121.798H119.679L115.44 52V56.25L113.321 58.375H115.44L117.56 60.5L119.679 62.625V66.875L117.56 69H119.679L121.798 73.25V75.375L123.917 79.625L121.798 81.75L123.917 88.125L130.275 92.375L140.872 100.875V117.875H136.633L130.275 120H128.156L123.917 122.125L113.321 132.75L100.606 143.375L98.4863 145.5L96.367 147.625L100.606 156.125L104.844 168.875L94.2478 177.375L81.5321 179.5L79.4128 181.625L75.1743 185.875L73.0551 183.75H70.9358L68.8165 188L66.6973 192.25L62.4588 194.375L56.101 196.5L53.9817 200.75L49.7432 205L47.624 207.125L43.3854 205H37.0275L30.6698 209.25L26.4312 213.5H24.312L20.0735 211.375H11.5964L9.47717 215.625L11.5964 222V224.125L7.35791 226.25L3.11939 230.5L9.47717 234.75L13.7157 239L9.47717 241.125H5.23865L1 247.5V256L5.23865 260.25L13.7157 268.75L28.5505 270.875L43.3854 273H45.5047L47.624 270.875L49.7432 273H53.9817L58.2202 270.875L64.578 266.625L79.4128 262.375L94.2478 258.125L98.4863 249.625L113.321 236.875L123.917 239L132.395 243.25H140.872L153.587 241.125L164.183 247.5L179.018 249.625L183.257 243.25L189.615 236.875L195.972 232.625L200.211 228.375V226.25V224.125H198.092V222L202.33 205L206.569 185.875L212.927 177.375L217.165 168.875L215.046 166.75L212.927 164.625V160.375L210.807 158.25L204.449 160.375L202.33 154L204.449 149.75L210.807 143.375V141.25L212.927 139.125L221.404 134.875L232 128.5L227.761 122.125L221.404 115.75L223.523 111.5V109.375V107.25V105.125L225.642 103L227.761 100.875L221.404 96.625H219.284L217.165 94.5L221.404 83.875L217.165 73.25L212.927 75.375H210.807L208.688 69L204.449 62.625L198.092 64.75L193.853 66.875V69H191.734L187.495 64.75V60.5H189.615L191.734 58.375L187.495 56.25L183.257 54.125L181.138 52V47.75H179.018H176.899L179.018 39.25L172.661 30.75L170.541 22.25H168.422L166.303 24.375L162.064 15.875V11.625V3.12499L153.587 5.24999L149.349 3.12499V3.12499Z" fill="#FAFAFA" stroke="#888888" stroke-width="0.5"/>
</svg>
